# xmcd CD database file
#
# Track frame offsets:
#	150
#	19300
#	36682
#	55587
#	82037
#	98425
#	120262
#	136425
#	157700
#	177375
#	192637
#	211612
#	228587
#	241312
#	259300
#	276725
#
# Disc length: 3960 seconds
#
# Revision: 0
# Processed by: cddbd v1.5.1PL0 Copyright (c) Steve Scherf et al.
# Submitted via: CDex 1.51
#
DISCID=e10f7610
DTITLE=Various Artist - The Best Of Rock Screen Themes
DYEAR=1992
DGENRE=Cinema
TTITLE0=ベルリン - 愛は吐息のように　Top Gun Love Theme
TTITLE1=チープ・トリップ - マイティ・ウイング
TTITLE2=マイク・レノ - チェイシング・ジ・エンジェル
TTITLE3=ポニー・タイラー - ヒーロー
TTITLE4=マイアミ・サウンド・マシーン - ホット・サマー・ナイト
TTITLE5=マイケル・ボルトン - ワン・モア・タイム
TTITLE6=カーラ・ポノフ - 誰かの愛が・・・
TTITLE7=オラン・ジュース・ジョーンズ - ハウ・トゥ・ラヴ・アゲイン
TTITLE8=デニース・ウイリアムス - レッツ・ヒア・イット・フォー・ザ・ボーイ
TTITLE9=フィリップ・ベイリー＆リトル・リチャード - ツインズ
TTITLE10=L.L.クールJ - ゴーング・バック・トゥ・カリフォルニア
TTITLE11=ティーナ・マリー - リード・ミー・オン
TTITLE12=バングルス - 冬の散歩道
TTITLE13=ビッグ・トラブル - オール・アイ・ニード・イズ・ユー
TTITLE14=マイク・レノ＆アン・ウィルソン - パラダイス　愛のテーマ
TTITLE15=ジェームスJ.T.テイラー＆レジーナ・ベル - オール・アイ・ウォント・イズ・フォーエヴァー
EXTD=YEAR: 1992
EXTT0=
EXTT1=
EXTT2=
EXTT3=
EXTT4=
EXTT5=
EXTT6=
EXTT7=
EXTT8=
EXTT9=
EXTT10=
EXTT11=
EXTT12=
EXTT13=
EXTT14=
EXTT15=
PLAYORDER=
